<svg xmlns="http://www.w3.org/2000/svg" viewBox="0 0 600 600" role="img" aria-label="Jersey deportivo gris">
  <defs>
    <linearGradient id="bd" x1="0" y1="0" x2="1" y2="0">
      <stop offset="0%" stop-color="#525252"/>
      <stop offset="18%" stop-color="#767676"/>
      <stop offset="50%" stop-color="#909090"/>
      <stop offset="82%" stop-color="#767676"/>
      <stop offset="100%" stop-color="#525252"/>
    </linearGradient>
    <linearGradient id="bv" x1="0" y1="0" x2="0" y2="1">
      <stop offset="0%" stop-color="rgba(0,0,0,0.06)"/>
      <stop offset="15%" stop-color="rgba(0,0,0,0)"/>
      <stop offset="72%" stop-color="rgba(0,0,0,0)"/>
      <stop offset="100%" stop-color="rgba(0,0,0,0.28)"/>
    </linearGradient>
    <filter id="ds" x="-20%" y="-10%" width="140%" height="140%">
      <feGaussianBlur in="SourceAlpha" stdDeviation="11" result="b"/>
      <feOffset in="b" dy="16" result="o"/>
      <feComponentTransfer in="o" result="s"><feFuncA type="linear" slope="0.48"/></feComponentTransfer>
      <feMerge><feMergeNode in="s"/><feMergeNode in="SourceGraphic"/></feMerge>
    </filter>
  </defs>
  <rect width="600" height="600" fill="#111111"/>
  <g filter="url(#ds)">
    <path d="M 258,108 C 250,108 224,106 186,106 L 92,188 L 116,254 L 206,228 L 206,492 L 394,492 L 394,228 L 484,254 L 508,188 L 414,106 C 376,106 350,108 342,108 L 300,192 Z" fill="url(#bd)" stroke="#5E5E5E" stroke-width="1.5" stroke-linejoin="round"/>
    <path d="M 258,108 C 250,108 224,106 186,106 L 92,188 L 116,254 L 206,228 L 206,492 L 394,492 L 394,228 L 484,254 L 508,188 L 414,106 C 376,106 350,108 342,108 L 300,192 Z" fill="url(#bv)" stroke="none"/>
    <path d="M 206,228 L 206,492 L 240,492 L 240,228 Z" fill="rgba(0,0,0,0.10)"/>
    <path d="M 394,228 L 394,492 L 360,492 L 360,228 Z" fill="rgba(0,0,0,0.10)"/>
  </g>
  <path d="M 258,108 L 300,192 L 342,108 C 334,112 322,148 300,172 C 278,148 266,112 258,108 Z" fill="rgba(0,0,0,0.18)"/>
  <path d="M 258,108 L 300,192 L 342,108" fill="none" stroke="rgba(0,0,0,0.18)" stroke-width="2"/>
  <path d="M 186,106 L 92,188 L 116,254 L 206,228 L 206,170 Z" fill="rgba(0,0,0,0.12)"/>
  <path d="M 414,106 L 508,188 L 484,254 L 394,228 L 394,170 Z" fill="rgba(0,0,0,0.12)"/>
  <line x1="206" y1="164" x2="206" y2="228" stroke="rgba(0,0,0,0.16)" stroke-width="1.5"/>
  <line x1="394" y1="164" x2="394" y2="228" stroke="rgba(0,0,0,0.16)" stroke-width="1.5"/>
  <line x1="240" y1="228" x2="240" y2="492" stroke="rgba(0,0,0,0.12)" stroke-width="1"/>
  <line x1="360" y1="228" x2="360" y2="492" stroke="rgba(0,0,0,0.12)" stroke-width="1"/>
  <path d="M 258,108 L 242,108 L 218,106 L 210,110 C 214,124 224,146 240,118 C 246,112 252,108 258,108 Z" fill="rgba(255,255,255,0.30)"/>
  <path d="M 342,108 L 358,108 L 382,106 L 390,110 C 386,124 376,146 360,118 C 354,112 348,108 342,108 Z" fill="rgba(255,255,255,0.30)"/>
</svg>
